<svg width="10" height="10" viewBox="0 0 10 10" fill="none" xmlns="http://www.w3.org/2000/svg">
<path d="M9.58332 7.4626C9.59166 7.7751 9.50832 8.07094 9.35832 8.3251C9.27499 8.4751 9.16249 8.61261 9.03749 8.72511C8.74999 8.99178 8.37082 9.15428 7.94998 9.16678C7.34165 9.17928 6.80415 8.86678 6.50832 8.38761C6.34999 8.14178 6.25416 7.84595 6.24999 7.53345C6.23749 7.00845 6.47082 6.53344 6.84582 6.22094C7.12915 5.98761 7.48749 5.84178 7.87916 5.83344C8.79999 5.81261 9.56249 6.54177 9.58332 7.4626Z" stroke="#9599A1" stroke-width="0.625" stroke-miterlimit="10" stroke-linecap="round" stroke-linejoin="round"/>
<path d="M7.26666 7.51274L7.6875 7.91272L8.55833 7.07104" stroke="#9599A1" stroke-width="0.625" stroke-linecap="round" stroke-linejoin="round"/>
<path d="M1.32086 3.09985L5.00002 5.22901L8.65418 3.11234" stroke="#9599A1" stroke-width="0.625" stroke-linecap="round" stroke-linejoin="round"/>
<path d="M5.00003 9.00402V5.22485" stroke="#9599A1" stroke-width="0.625" stroke-linecap="round" stroke-linejoin="round"/>
<path d="M9.00417 3.82075V6.1791C9.00417 6.19993 9.00418 6.21658 9.00001 6.23741C8.70835 5.98325 8.33334 5.83326 7.91668 5.83326C7.52501 5.83326 7.16251 5.97076 6.87501 6.19993C6.49168 6.5041 6.25001 6.97493 6.25001 7.49993C6.25001 7.81243 6.3375 8.10826 6.49167 8.35826C6.52917 8.42493 6.57501 8.48743 6.62501 8.54576L5.86251 8.9666C5.38751 9.23327 4.61251 9.23327 4.13751 8.9666L1.91251 7.73326C1.40834 7.45409 0.99585 6.7541 0.99585 6.1791V3.82075C0.99585 3.24575 1.40834 2.54576 1.91251 2.26659L4.13751 1.03325C4.61251 0.766585 5.38751 0.766585 5.86251 1.03325L8.08751 2.26659C8.59168 2.54576 9.00417 3.24575 9.00417 3.82075Z" stroke="#9599A1" stroke-width="0.63" stroke-linecap="round" stroke-linejoin="round"/>
</svg>
